<svg width="500" height="500" viewBox="0 0 500 500" fill="none" xmlns="http://www.w3.org/2000/svg">
<rect width="500" height="500" rx="200" fill="white"/>
<path d="M218.522 70.2334C215.55 71.0297 206.314 75.0642 199.785 78.3025C178.235 89.079 164.7 102.457 159.233 118.17C157.534 123.054 157.481 123.479 157.534 131.442C157.587 136.857 157.853 140.52 158.33 142.219L159.073 144.767L166.929 134.946C171.282 129.531 175.05 124.965 175.316 124.753C175.581 124.594 177.757 126.346 180.146 128.628C193.787 141.794 214.488 168.337 241.824 207.78C251.538 221.742 270.381 249.825 270.062 249.825C269.956 249.825 268.47 247.861 266.771 245.419C237.153 202.949 202.811 171.735 166.239 154.057C146.865 144.714 144.689 145.138 132.162 160.905C113.85 184.051 108.17 206.453 116.345 223.706C118.468 228.219 123.086 234.748 123.67 234.164C123.882 233.952 125.05 228.909 126.27 222.91C127.491 216.911 128.606 211.921 128.712 211.762C129.084 211.443 140.336 215.159 147.661 218.079C161.356 223.547 183.225 234.058 207.429 246.905C222.503 254.921 246.973 268.352 247.716 269.042C247.981 269.307 244.425 267.715 239.807 265.485C200.422 246.586 164.275 238.04 130.835 239.791C116.504 240.535 114.805 241.809 111.886 254.125C109.444 264.211 108.754 270.953 109.073 280.88C109.391 291.391 110.347 295.798 113.85 302.911C116.875 309.122 123.245 315.599 129.243 318.519C131.525 319.633 133.489 320.43 133.595 320.323C133.702 320.217 132.64 315.758 131.154 310.396C129.668 305.035 128.606 300.575 128.765 300.416C129.243 299.938 140.549 298.186 147.927 297.496C156.897 296.647 221.442 296.541 237.1 297.337L247.185 297.815L236.304 298.186C199.201 299.407 169.53 306.733 144.317 320.854C137.842 324.517 134.71 327.012 133.808 329.295C132.905 331.737 133.33 336.196 135.135 342.779C141.823 367.252 153.235 380.577 169.477 383.125C171.547 383.443 174.307 383.549 175.581 383.337L177.917 383.019L171.813 376.277L165.655 369.535L167.142 368.314C170.804 365.288 183.012 357.59 192.62 352.281C208.437 343.469 253.024 321.598 253.714 322.235C253.82 322.394 252.493 323.19 250.688 324.093C241.983 328.499 227.121 338.214 218.31 345.274C204.828 356.104 190.656 372.083 185.082 382.806C182.959 386.841 182.8 388.646 184.233 391.459C186.569 395.865 196.282 405.633 202.864 410.146C213.692 417.525 225.317 419.064 234.658 414.286C235.932 413.596 237.1 412.8 237.206 412.535C237.259 412.216 234.552 410.995 231.102 409.721C227.652 408.447 224.52 407.226 224.096 406.96C221.442 405.315 239.86 377.498 265.126 344.849C273.406 334.179 273.99 333.648 268.523 341.664C255.253 361.306 246.548 380.789 242.673 399.475C241.293 406.058 240.232 416.357 240.763 418.321C241.453 421.028 244.16 423.099 250.211 425.435C259.447 429.044 264.117 430 272.398 430C280.466 430 283.598 429.151 288.693 425.806C291.347 424.054 295.753 419.17 295.753 418.002C295.753 417.419 294.16 417.525 285.19 418.427L281.793 418.799L282.111 409.562C282.271 404.465 282.908 396.396 283.545 391.565C284.818 381.532 288.852 357.537 290.71 348.565C291.984 342.514 292.037 342.938 290.976 353.078C290.233 360.085 290.233 378.241 290.976 384.93C292.78 401.333 298.619 420.02 302.547 422.037C307.271 424.479 325.265 421.241 333.227 416.463C339.702 412.641 344.214 406.27 344.957 400.112C345.117 398.626 345.117 397.405 344.904 397.405C344.692 397.405 342.41 398.838 339.809 400.59C337.208 402.342 334.819 403.775 334.501 403.775C333.651 403.775 328.715 393.105 325.318 383.868C320.753 371.393 311.305 341.346 311.783 340.815C311.889 340.709 313.057 343.31 314.277 346.601C317.356 354.511 323.513 366.668 328.025 373.516C334.978 384.186 346.284 396.237 350.531 397.511C352.335 398.042 352.813 397.936 355.839 396.449C363.694 392.521 372.134 384.452 375.319 377.816C377.123 374.047 377.23 373.463 377.23 368.738C377.23 365.394 376.911 363.058 376.38 361.837L375.584 360.032L372.612 365.181L369.692 370.384L365.499 367.252C359.448 362.74 347.877 351.857 336.942 340.284C322.505 325.101 322.133 324.623 328.29 330.144C342.622 342.991 355.042 350.477 369.374 355.148C376.964 357.59 379.671 357.643 381.741 355.467C383.971 353.078 388.429 344.053 389.756 339.275C391.986 331.153 390.446 323.402 385.722 318.837L383.865 317.032V319.209C383.865 320.377 383.705 322.765 383.546 324.57L383.174 327.756L381.264 327.49C377.07 326.906 364.013 323.509 355.998 320.961C344.48 317.191 332.271 312.891 332.537 312.679C332.643 312.573 334.978 313.051 337.739 313.741C347.771 316.289 352.813 316.926 363.164 316.926C370.542 316.926 374.151 316.714 377.707 316.023C383.599 314.802 385.191 314.006 385.935 311.883C386.784 309.388 386.678 298.399 385.722 294.789C384.13 288.578 380.467 283.694 376.115 281.889C372.718 280.456 372.559 280.774 374.576 285.127L376.38 289.162L374.947 289.693C371.762 290.914 363.535 292.878 356.263 294.152C345.807 295.957 328.237 298.24 327.441 297.921C327.07 297.815 327.441 297.656 328.237 297.656C330.626 297.549 343.471 294.099 347.93 292.347C356.794 288.843 365.658 283.481 369.268 279.5C371.603 276.899 371.55 276.049 368.631 269.998C365.924 264.477 360.775 259.274 356.794 258.106C353.768 257.204 351.327 257.098 349.628 257.735C348.726 258.106 348.991 258.425 351.645 260.177C353.291 261.291 354.671 262.353 354.671 262.619C354.671 263.256 346.603 270.104 340.074 275.041C331.953 281.093 321.231 288.312 324.681 285.393C332.961 278.279 339.119 270.847 342.993 263.362C345.86 257.681 345.807 256.354 342.622 253.647C341.189 252.532 338.694 250.78 336.942 249.825C334.341 248.338 333.121 248.02 329.777 247.861C326.539 247.648 325.371 247.807 323.938 248.657C321.231 250.143 321.39 250.674 324.522 251.205C327.07 251.63 327.335 251.842 327.176 252.957C326.963 255.133 322.982 263.999 318.205 273.023C315.658 277.801 313.534 281.57 313.428 281.464C313.269 281.358 313.641 280.349 314.224 279.181C315.658 276.421 318.365 267.821 319.108 263.627C319.479 261.716 319.745 257.682 319.798 254.656C319.798 248.02 319.532 247.595 313.694 246.64C306.899 245.472 301.22 247.064 298.672 250.78C297.929 251.842 297.451 252.744 297.557 252.851C297.664 252.957 298.831 252.744 300.158 252.373C301.538 252.054 302.759 251.895 302.972 252.107C303.821 252.904 304.352 263.202 304.086 273.979C303.874 284.915 303.874 285.393 304.511 281.464C305.519 275.412 306.899 269.891 307.749 268.564C308.173 267.927 309.394 267.131 310.509 266.759C313.216 265.963 314.861 266.759 314.861 268.83C314.861 271.006 313.057 278.12 310.987 283.906C309.978 286.773 309.235 289.109 309.288 289.109C309.341 289.109 311.252 286.507 313.534 283.269C315.764 280.084 319.055 275.89 320.806 273.979C324.363 270.157 325.743 269.732 329.193 271.484C330.626 272.174 330.997 272.705 330.891 273.607C330.679 275.731 327.653 279.606 321.019 286.189L314.596 292.612L324.15 287.781C329.405 285.074 335.297 282.367 337.261 281.73C340.499 280.668 340.923 280.615 342.356 281.358C344.214 282.314 347.24 285.658 347.24 286.72C347.24 287.782 344.32 289.905 340.286 291.71C337.314 293.037 322.186 298.186 319.373 298.77C318.789 298.877 325.106 299.142 333.439 299.301C341.773 299.514 349.416 299.832 350.424 300.098C352.919 300.735 355.095 303.92 355.52 307.423C355.945 310.927 355.255 311.511 350.212 311.83C344.745 312.148 331.422 310.449 320.435 307.954C319.585 307.742 322.664 309.494 327.335 311.83C336.677 316.448 344.798 321.014 349.469 324.305C353.45 327.065 354.405 329.985 353.025 334.922C352.176 338.054 350.955 339.01 348.461 338.479C343.524 337.364 333.068 330.728 320.594 320.907C317.993 318.89 315.817 317.244 315.711 317.244C315.551 317.244 318.046 320.695 321.231 324.942C331.953 339.169 339.278 351.06 339.278 354.193C339.278 357.749 334.395 364.491 331.794 364.491C330.307 364.491 326.167 360.032 322.77 354.83C320.275 350.954 312.791 336.462 307.483 325.207L306.899 323.88L307.165 325.367C307.324 326.163 308.386 332.374 309.553 339.169C311.836 352.972 312.738 360.881 312.738 367.783V372.507L310.456 374.737C307.643 377.551 304.67 379.037 301.592 379.037C299.256 379.09 299.15 379.037 297.982 376.595C295.487 371.552 295.01 366.88 295.01 346.017C294.957 335.453 294.797 327.331 294.585 327.968C287.685 351.167 283.863 362.156 279.617 371.233C277.175 376.383 276.91 376.701 274.574 377.657C273.247 378.241 271.018 378.878 269.691 379.09C266.825 379.515 261.623 378.559 260.455 377.444C256.952 373.888 264.754 354.246 281.05 325.738C282.536 323.084 282.111 323.456 275.583 330.251C261.623 344.796 249.68 355.838 242.249 361.147C239.011 363.483 238.852 363.536 235.879 363.217C232.058 362.74 227.068 360.351 224.52 357.749L222.556 355.732L223.777 353.078C226.909 346.389 239.489 335.665 261.464 320.854C267.037 317.085 271.442 314.059 271.283 314.059C271.124 314.059 266.294 315.705 260.561 317.775C240.763 324.783 222.503 330.038 211.197 331.896L205.465 332.905L203.129 331.631C198.087 328.923 192.673 321.651 192.567 317.244C192.513 315.599 192.779 315.227 195.433 313.475C199.255 310.98 204.085 309.122 211.781 307.158C222.663 304.451 241.877 301.265 257.43 299.62C260.986 299.248 263.905 298.77 263.905 298.558C263.905 298.346 263.268 298.133 262.525 298.133C260.19 298.133 235.083 294.47 224.255 292.506C211.781 290.33 202.545 288.153 194.159 285.552C187.896 283.588 187.842 283.535 186.091 280.88C183.225 276.633 182.057 272.599 182.057 267.078C182.057 260.548 182.481 259.646 185.932 258.849C196.282 256.354 221.866 263.043 266.294 279.819C266.878 280.031 263.427 277.536 258.597 274.244C232.27 256.142 212.577 240.853 201.218 229.652L196.601 225.086L196.229 221.158C195.592 214.257 197.609 207.196 201.855 201.251C203.819 198.49 204.616 198.331 209.127 199.923C219.425 203.533 238.162 219.565 261.941 244.994C267.833 251.258 273.778 257.628 275.158 259.115L277.706 261.769L276.591 259.38C275.954 258.053 273.3 253.063 270.699 248.285C254.776 219.035 243.47 194.668 238.002 177.999L236.145 172.212L236.994 169.452C239.436 161.807 247.079 153.42 254.51 150.288C256.633 149.385 258.066 150.075 261.145 153.42C267.939 160.799 275.37 176.778 283.916 202.578C287.791 214.416 297.345 247.064 297.345 248.657C297.345 249.081 297.451 249.347 297.611 249.241C297.929 248.869 296.071 233.156 294.373 222.22C285.88 166.904 268.576 121.94 242.514 87.221C235.773 78.2494 230.624 72.6223 227.811 71.1889C226.007 70.2334 220.486 69.6494 218.522 70.2334Z" fill="#0067CB"/>
</svg>
